<svg width="60" height="60" viewBox="0 0 60 60" fill="none" xmlns="http://www.w3.org/2000/svg">
<path d="M3.76984 26.0369C4.02784 26.2589 4.37184 26.3718 4.80184 26.3718C5.23184 26.3718 5.57984 26.2569 5.84384 26.027C6.10784 25.7971 6.24184 25.4939 6.24184 25.1194V20.8173L8.37184 19.1031C9.89184 19.868 11.0498 20.7459 11.8458 21.7348C12.6418 22.7236 13.1758 23.9621 13.4478 25.4523C13.5618 26.0647 14.0718 26.3718 14.9738 26.3718C15.3318 26.3718 15.6258 26.2391 15.8558 25.9755C16.0858 25.7119 16.1778 25.3968 16.1358 25.0362C15.9358 23.4489 15.3218 21.9983 14.2978 20.6825C13.2738 19.3667 11.8978 18.3461 10.1778 17.6209L15.1238 13.4435C15.4678 13.1502 15.6398 12.8589 15.6398 12.5657C15.6398 12.316 15.5038 12.0445 15.2318 11.7512C14.9738 11.4876 14.6718 11.3549 14.3278 11.3549C13.9838 11.3549 13.6818 11.4738 13.4238 11.7096L6.24184 17.7873V12.5875C6.24184 12.2109 6.10984 11.9078 5.84384 11.6799C5.57984 11.45 5.23184 11.3351 4.80184 11.3351C4.37184 11.3351 4.02784 11.446 3.76984 11.67C3.51184 11.8919 3.38184 12.1991 3.38184 12.5894V25.1214C3.38184 25.5078 3.51184 25.815 3.76984 26.0369Z" fill="#993399"/>
<path d="M29.3116 26.35C29.6136 26.35 29.9216 26.2291 30.2356 25.9894C30.5356 25.7357 30.6876 25.4385 30.6876 25.0996C30.6876 24.7746 30.5596 24.4853 30.2996 24.2316L27.0316 21.0333C28.5656 21.0333 29.7876 20.6092 30.6976 19.763C31.6076 18.9149 32.0636 17.7378 32.0636 16.2258C32.0636 14.6028 31.5176 13.3801 30.4296 12.5617C29.3396 11.7433 27.7276 11.3331 25.5916 11.3331H21.7636C20.7316 11.3331 19.9256 11.6085 19.3436 12.1594C18.7636 12.7103 18.4736 13.4792 18.4736 14.468V25.0996C18.4736 25.4959 18.6016 25.8051 18.8596 26.031C19.1176 26.2569 19.4616 26.3698 19.8916 26.3698C20.3076 26.3698 20.6516 26.2569 20.9236 26.031C21.1956 25.8051 21.3316 25.4939 21.3316 25.0996V21.1185H23.5256L28.1716 25.7991C28.5156 26.1677 28.8956 26.35 29.3116 26.35ZM21.3316 18.9386V14.5533C21.3316 14.2283 21.4136 13.9746 21.5796 13.7903C21.7436 13.608 21.9696 13.5149 22.2576 13.5149H25.5056C26.7676 13.5149 27.6956 13.7269 28.2896 14.151C28.8836 14.575 29.1816 15.2666 29.1816 16.2258C29.1816 16.8896 29.0696 17.4148 28.8476 17.8032C28.6256 18.1916 28.2496 18.4769 27.7196 18.6612C27.1896 18.8455 26.4516 18.9367 25.5036 18.9367H21.3316V18.9386Z" fill="#993399"/>
<path d="M34.6438 26.0369C34.9018 26.2589 35.2458 26.3718 35.6758 26.3718C36.0918 26.3718 36.4358 26.2608 36.7078 26.0369C36.9798 25.815 37.1158 25.5078 37.1158 25.1174V12.5875C37.1158 12.1971 36.9798 11.8919 36.7078 11.668C36.4358 11.446 36.0918 11.3331 35.6758 11.3331C35.2458 11.3331 34.9018 11.444 34.6438 11.668C34.3858 11.8899 34.2578 12.1971 34.2578 12.5875V25.1194C34.2558 25.5078 34.3858 25.815 34.6438 26.0369Z" fill="#993399"/>
<path d="M16.2678 28.8786C15.4778 28.8786 14.7458 29.0649 14.0718 29.4394C13.3978 29.812 12.8218 30.3589 12.3458 31.0782C11.8558 30.3728 11.2738 29.8298 10.5998 29.4493C9.92584 29.0688 9.20784 28.8786 8.44584 28.8786C6.86584 28.8786 5.62784 29.3344 4.72984 30.2479C3.83184 31.1615 3.38184 32.4178 3.38184 34.023V42.5678C3.38184 42.9543 3.50384 43.2594 3.74984 43.4814C3.99384 43.7033 4.32184 43.8143 4.72984 43.8143C5.13784 43.8143 5.46784 43.6994 5.71984 43.4715C5.97184 43.2436 6.09784 42.9424 6.09784 42.5698V34.0249C6.09784 32.9747 6.28784 32.2177 6.66984 31.754C7.04984 31.2903 7.67784 31.0584 8.54784 31.0584C9.32384 31.0584 9.92984 31.322 10.3658 31.8471C10.8018 32.3723 11.0198 33.0995 11.0198 34.0249V42.5698C11.0198 42.9562 11.1398 43.2614 11.3778 43.4834C11.6158 43.7033 11.9398 43.8143 12.3478 43.8143C12.7558 43.8143 13.0838 43.7033 13.3278 43.4834C13.5738 43.2614 13.6958 42.9582 13.6958 42.5698V34.0249C13.6958 33.0698 13.9098 32.3386 14.3398 31.8273C14.7678 31.316 15.3778 31.0604 16.1678 31.0604C17.0398 31.0604 17.6658 31.2923 18.0458 31.756C18.4278 32.2197 18.6178 32.9767 18.6178 34.0269V42.5718C18.6178 42.9582 18.7398 43.2634 18.9858 43.4853C19.2298 43.7053 19.5578 43.8163 19.9658 43.8163C20.3738 43.8163 20.7038 43.7014 20.9558 43.4735C21.2078 43.2456 21.3338 42.9444 21.3338 42.5718V34.0269C21.3338 32.4238 20.8838 31.1654 19.9858 30.2519C19.0858 29.3364 17.8478 28.8786 16.2678 28.8786Z" fill="#993399"/>
<path d="M36.4279 29.8239C35.2079 29.1957 33.7519 28.8806 32.0639 28.8806C30.3759 28.8806 28.9199 29.1937 27.6999 29.8239C26.4799 30.454 25.5519 31.3319 24.9159 32.4575C24.2799 33.585 23.9619 34.881 23.9619 36.3455C23.9619 37.8119 24.2799 39.1079 24.9159 40.2335C25.5519 41.361 26.4779 42.2389 27.6999 42.8671C28.9199 43.4972 30.3759 43.8103 32.0639 43.8103C33.7519 43.8103 35.2079 43.4953 36.4279 42.8671C37.6479 42.2389 38.5759 41.361 39.2119 40.2335C39.8479 39.1059 40.1659 37.8099 40.1659 36.3455C40.1659 34.881 39.8479 33.583 39.2119 32.4575C38.5759 31.3299 37.6479 30.452 36.4279 29.8239ZM35.8979 40.2136C34.9879 41.1609 33.7099 41.6345 32.0639 41.6345C30.4179 41.6345 29.1399 41.1609 28.2299 40.2136C27.3199 39.2664 26.8659 37.9764 26.8659 36.3455C26.8659 34.7423 27.3019 33.4602 28.1759 32.4991C29.0499 31.538 30.2739 31.0584 31.8479 31.0584C33.5659 31.0584 34.8979 31.5281 35.8439 32.4694C36.7899 33.4087 37.2619 34.7027 37.2619 36.3474C37.2619 37.9783 36.8079 39.2664 35.8979 40.2136Z" fill="#993399"/>
<path d="M56.8396 40.6793L46.2756 30.2915C45.9776 29.9982 45.6496 29.8496 45.2916 29.8456C45.2256 29.812 45.1596 29.8001 45.0956 29.8139C39.6836 30.8999 41.4496 36.6784 44.5576 36.7596C46.6176 36.8131 47.0116 40.3167 43.1816 40.5149C40.7496 40.6397 41.0976 43.8163 44.8456 43.8163C47.0556 43.8163 48.1996 41.4958 48.2016 40.2374C48.2016 36.7339 44.0876 36.3217 45.1996 33.6465L54.6156 42.9047C54.9436 43.2277 55.3036 43.3823 55.6916 43.3665C56.0796 43.3506 56.4416 43.1762 56.7756 42.8413C57.0996 42.5183 57.2736 42.1576 57.2976 41.7613C57.3216 41.361 57.1676 41.0023 56.8396 40.6793Z" fill="#993399"/>
<path d="M43.6782 24.4972C44.2802 24.8004 44.9122 25.0758 45.5562 25.3116C46.4762 25.6446 47.3902 25.9596 48.2742 26.249C49.2122 26.5561 50.0842 26.897 50.8702 27.2636C51.7462 27.6718 52.4602 28.1831 52.9942 28.7795C53.6102 29.4731 53.9222 30.347 53.9222 31.3755C53.9222 32.2454 53.8202 33.0758 53.4802 33.7198C53.2762 34.1042 53.3802 34.5798 53.7102 34.8632L54.4002 35.4577C54.8582 35.852 55.5662 35.7331 55.8682 35.212C55.9462 35.0792 56.0202 34.9405 56.0902 34.7998C56.5862 33.807 56.8362 32.612 56.8362 31.2467C56.8362 30.0577 56.6602 29.051 56.3122 28.2544C55.9642 27.4558 55.4982 26.784 54.9262 26.2569C54.3242 25.7 53.6222 25.2264 52.8442 24.8519C52.0182 24.4556 51.1642 24.1028 50.2962 23.8056C49.4102 23.5222 48.5522 23.2567 47.7462 23.0169C46.8642 22.7533 46.0542 22.464 45.3382 22.1549C44.5102 21.7982 43.8362 21.3206 43.3382 20.738C42.7702 20.0761 42.4842 19.2498 42.4842 18.2827C42.4842 17.5852 42.6242 16.9411 42.9022 16.3704C43.1742 15.8116 43.5502 15.332 44.0202 14.9436C44.4802 14.5612 45.0362 14.2699 45.6722 14.0757C46.2742 13.8934 46.9042 13.8002 47.5482 13.8002C48.3682 13.8002 49.0982 13.8835 49.7162 14.044C50.3562 14.2124 50.9522 14.478 51.4922 14.8307C51.9762 15.1477 52.4462 15.5461 52.8882 16.0117L52.9402 16.0553C52.9442 16.0593 52.9502 16.0613 52.9542 16.0653C53.3982 16.3724 53.9842 16.3407 54.4102 16.0098C54.7302 15.7601 54.9862 15.4331 55.1542 15.0586C55.3062 14.7177 55.2502 14.3174 55.0082 14.036C54.9162 13.929 54.8042 13.8101 54.6702 13.6774L54.5982 13.6021C54.4962 13.4832 54.2822 13.2691 53.8462 12.9243C53.4942 12.6469 53.0222 12.3596 52.4442 12.0683C51.8762 11.7829 51.1802 11.5411 50.3722 11.3489C49.5662 11.1567 48.6302 11.0616 47.5942 11.0616C45.9942 11.0616 44.5762 11.3826 43.3782 12.0167C42.1802 12.6509 41.2722 13.4832 40.6022 14.5651C39.9382 15.6352 39.6162 16.8361 39.6162 18.2411C39.6162 19.1091 39.7182 19.878 39.9162 20.5299C40.1122 21.166 40.3882 21.7308 40.7362 22.2044C41.0942 22.6899 41.5222 23.116 42.0062 23.4727C42.5282 23.8591 43.0942 24.2039 43.6782 24.4972Z" fill="#993399"/>
<path d="M5.20611 48.1581C5.06611 48.1046 4.88211 48.0491 4.64811 47.9916C4.44011 47.9401 4.27411 47.8926 4.15411 47.847C4.03411 47.8014 3.93211 47.738 3.85011 47.6528C3.76811 47.5676 3.72811 47.4566 3.72811 47.3159C3.72811 47.1296 3.80411 46.979 3.95411 46.8621C4.10611 46.7452 4.32811 46.6877 4.62011 46.6877C4.76811 46.6877 4.91811 46.7095 5.07211 46.7551C5.22611 46.8007 5.36411 46.8661 5.49211 46.9532L5.57811 46.769C5.45411 46.6818 5.30811 46.6124 5.13811 46.5629C4.96811 46.5113 4.79611 46.4856 4.62211 46.4856C4.37011 46.4856 4.16211 46.5232 3.99411 46.5985C3.82611 46.6738 3.70211 46.7749 3.62011 46.9017C3.53811 47.0286 3.49811 47.1692 3.49811 47.3218C3.49811 47.5101 3.54811 47.6607 3.64611 47.7737C3.74411 47.8866 3.86411 47.9698 4.00411 48.0233C4.14411 48.0768 4.33211 48.1323 4.56411 48.1898C4.77011 48.2374 4.93211 48.2849 5.05411 48.3285C5.17411 48.3741 5.27611 48.4375 5.35811 48.5227C5.44011 48.6059 5.48011 48.7189 5.48011 48.8596C5.48011 49.0419 5.40211 49.1905 5.24811 49.3035C5.09411 49.4184 4.86611 49.4739 4.56411 49.4739C4.35611 49.4739 4.15611 49.4363 3.96811 49.3629C3.77811 49.2896 3.62811 49.1945 3.51611 49.0776L3.41211 49.248C3.53011 49.3748 3.69411 49.4759 3.90411 49.5552C4.11411 49.6344 4.33611 49.6741 4.56811 49.6741C4.81811 49.6741 5.03011 49.6364 5.20411 49.5611C5.37611 49.4858 5.50411 49.3867 5.58811 49.2599C5.67211 49.1331 5.71211 48.9943 5.71211 48.8418C5.71211 48.6555 5.66211 48.5088 5.56411 48.3999C5.46411 48.2928 5.34411 48.2116 5.20611 48.1581Z" fill="#993399"/>
<path d="M13.2402 46.7154H14.3842V49.6542H14.6142V46.7154H15.7582V46.5094H13.2402V46.7154Z" fill="#993399"/>
<path d="M25.8775 48.3107C25.8775 48.6971 25.7875 48.9864 25.6095 49.1786C25.4315 49.3709 25.1735 49.466 24.8375 49.466C24.4995 49.466 24.2395 49.3709 24.0615 49.1786C23.8835 48.9864 23.7935 48.6971 23.7935 48.3107V46.5094H23.5615V48.3206C23.5615 48.7645 23.6735 49.1014 23.8955 49.3312C24.1175 49.5611 24.4295 49.678 24.8315 49.678C25.2335 49.678 25.5475 49.5631 25.7695 49.3312C25.9935 49.1014 26.1055 48.7625 26.1055 48.3206V46.5094H25.8735V48.3107H25.8775Z" fill="#993399"/>
<path d="M36.6496 46.7115C36.3936 46.5767 36.1016 46.5094 35.7716 46.5094H34.5156V49.6542H35.7716C36.1016 49.6542 36.3936 49.5869 36.6496 49.4521C36.9056 49.3174 37.1036 49.1311 37.2456 48.8933C37.3876 48.6555 37.4596 48.384 37.4596 48.0828C37.4596 47.7796 37.3876 47.5101 37.2456 47.2723C37.1056 47.0325 36.9056 46.8462 36.6496 46.7115ZM37.0476 48.7922C36.9276 48.9983 36.7536 49.1608 36.5316 49.2757C36.3076 49.3907 36.0496 49.4481 35.7556 49.4481H34.7496V46.7154H35.7556C36.0496 46.7154 36.3076 46.7729 36.5316 46.8879C36.7556 47.0028 36.9276 47.1633 37.0476 47.3714C37.1676 47.5775 37.2296 47.8153 37.2296 48.0808C37.2296 48.3463 37.1676 48.5861 37.0476 48.7922Z" fill="#993399"/>
<path d="M45.8218 46.5094H45.5898V49.6562H45.8218V46.5094Z" fill="#993399"/>
<path d="M56.4462 46.6936C56.1942 46.5569 55.9142 46.4875 55.6022 46.4875C55.2902 46.4875 55.0102 46.5569 54.7582 46.6956C54.5062 46.8343 54.3102 47.0266 54.1662 47.2683C54.0222 47.5101 53.9502 47.7816 53.9502 48.0828C53.9502 48.384 54.0222 48.6535 54.1662 48.8972C54.3102 49.139 54.5062 49.3312 54.7582 49.4699C55.0102 49.6086 55.2902 49.678 55.6022 49.678C55.9142 49.678 56.1942 49.6087 56.4462 49.4719C56.6962 49.3352 56.8942 49.143 57.0382 48.9012C57.1822 48.6594 57.2542 48.386 57.2542 48.0828C57.2542 47.7796 57.1822 47.5081 57.0382 47.2644C56.8942 47.0206 56.6982 46.8304 56.4462 46.6936ZM56.8322 48.7902C56.7082 49.0023 56.5382 49.1667 56.3242 49.2876C56.1102 49.4065 55.8682 49.468 55.6022 49.468C55.3362 49.468 55.0942 49.4085 54.8782 49.2876C54.6622 49.1667 54.4922 49.0023 54.3682 48.7902C54.2442 48.5782 54.1822 48.3424 54.1822 48.0828C54.1822 47.8232 54.2442 47.5854 54.3682 47.3753C54.4922 47.1633 54.6622 46.9988 54.8782 46.8779C55.0942 46.759 55.3362 46.6976 55.6022 46.6976C55.8682 46.6976 56.1082 46.7571 56.3242 46.8779C56.5382 46.9988 56.7082 47.1633 56.8322 47.3753C56.9562 47.5874 57.0182 47.8232 57.0182 48.0828C57.0182 48.3424 56.9562 48.5782 56.8322 48.7902Z" fill="#993399"/>
</svg>
